# xmcd
#
# Track frame offsets:
#	150
#	9110
#	22627
#	32782
#	39166
#	49065
#	61959
#	73728
#	84459
#	97718
#	110325
#	121964
#	132970
#	148252
#
# Disc length: 2135 seconds
#
# Revision: 1
# Processed by: cddbd v1.5.2PL0 Copyright (c) Steve Scherf et al.
# Submitted via: audiograbber 1.83.01
#
DISCID=a808550e
DTITLE=Bobby Atkinds - Memories
DYEAR=1900
DGENRE=
TTITLE0=A Song For You
TTITLE1=Will You Be Loving Another Man
TTITLE2=Enough To Keep Me Dreaming
TTITLE3=Wild Wood Flower
TTITLE4=I´ll Go Stepping Too
TTITLE5=Memories
TTITLE6=Jimmy Brown
TTITLE7=Pretending
TTITLE8=Rive Of No Return
TTITLE9=Not The Love I Have For You
TTITLE10=Darling Call Me Darling
TTITLE11=Leather Britches
TTITLE12=The Good Old Days
TTITLE13=Get In Line Brothere
EXTD=
EXTT0=
EXTT1=
EXTT2=
EXTT3=
EXTT4=
EXTT5=
EXTT6=
EXTT7=
EXTT8=
EXTT9=
EXTT10=
EXTT11=
EXTT12=
EXTT13=
PLAYORDER=
